<?xml version="1.0" encoding="UTF-8" standalone="no"?>
<!DOCTYPE svg PUBLIC "-//W3C//DTD SVG 1.1//EN"
 "http://www.w3.org/Graphics/SVG/1.1/DTD/svg11.dtd">
<!-- Generated by graphviz version 2.28.0 (20121110.1539)
 -->
<!-- Title: controllers_diagram Pages: 1 -->
<svg width="1114pt" height="1061pt"
 viewBox="0.00 0.00 1114.00 1061.00" xmlns="http://www.w3.org/2000/svg" xmlns:xlink="http://www.w3.org/1999/xlink">
<g id="graph1" class="graph" transform="scale(1 1) rotate(0) translate(4 1057)">
<title>controllers_diagram</title>
<polygon fill="white" stroke="white" points="-4,5 -4,-1057 1111,-1057 1111,5 -4,5"/>
<!-- _diagram_info -->
<g id="node1" class="node"><title>_diagram_info</title>
<text text-anchor="start" x="908" y="-1038.6" font-family="Times,serif" font-size="13.00">Controllers diagram</text>
<text text-anchor="start" x="908" y="-1024.6" font-family="Times,serif" font-size="13.00">Date: Nov 10 2012 &#45; 15:51</text>
<text text-anchor="start" x="908" y="-1010.6" font-family="Times,serif" font-size="13.00">Migration version: 20121107213514</text>
<text text-anchor="start" x="908" y="-996.6" font-family="Times,serif" font-size="13.00">Generated by RailRoady 1.1.0</text>
<text text-anchor="start" x="908" y="-982.6" font-family="Times,serif" font-size="13.00">http://railroady.prestonlee.com</text>
</g>
<!-- ApplicationController -->
<g id="node2" class="node"><title>ApplicationController</title>
<polyline fill="none" stroke="black" points="381.111,-447.724 559.111,-447.724 "/>
<path fill="none" stroke="black" d="M559.111,-447.724C565.111,-447.724 571.111,-453.724 571.111,-459.724"/>
<polyline fill="none" stroke="black" points="571.111,-459.724 571.111,-528.724 "/>
<path fill="none" stroke="black" d="M571.111,-528.724C571.111,-534.724 565.111,-540.724 559.111,-540.724"/>
<polyline fill="none" stroke="black" points="559.111,-540.724 381.111,-540.724 "/>
<path fill="none" stroke="black" d="M381.111,-540.724C375.111,-540.724 369.111,-534.724 369.111,-528.724"/>
<polyline fill="none" stroke="black" points="369.111,-528.724 369.111,-459.724 "/>
<path fill="none" stroke="black" d="M369.111,-459.724C369.111,-453.724 375.111,-447.724 381.111,-447.724"/>
<text text-anchor="middle" x="470.111" y="-525.524" font-family="Times,serif" font-size="14.00">ApplicationController</text>
<polyline fill="none" stroke="black" points="369.111,-517.724 571.111,-517.724 "/>
<text text-anchor="start" x="377.111" y="-502.524" font-family="Times,serif" font-size="14.00">_one_time_conditions_valid_8?</text>
<polyline fill="none" stroke="black" points="369.111,-494.724 571.111,-494.724 "/>
<polyline fill="none" stroke="black" points="369.111,-470.724 571.111,-470.724 "/>
<text text-anchor="start" x="377.111" y="-455.524" font-family="Times,serif" font-size="14.00">_layout</text>
</g>
<!-- CardsController -->
<g id="node3" class="node"><title>CardsController</title>
<polyline fill="none" stroke="black" points="763.441,-618.256 849.441,-618.256 "/>
<path fill="none" stroke="black" d="M849.441,-618.256C855.441,-618.256 861.441,-624.256 861.441,-630.256"/>
<polyline fill="none" stroke="black" points="861.441,-630.256 861.441,-834.256 "/>
<path fill="none" stroke="black" d="M861.441,-834.256C861.441,-840.256 855.441,-846.256 849.441,-846.256"/>
<polyline fill="none" stroke="black" points="849.441,-846.256 763.441,-846.256 "/>
<path fill="none" stroke="black" d="M763.441,-846.256C757.441,-846.256 751.441,-840.256 751.441,-834.256"/>
<polyline fill="none" stroke="black" points="751.441,-834.256 751.441,-630.256 "/>
<path fill="none" stroke="black" d="M751.441,-630.256C751.441,-624.256 757.441,-618.256 763.441,-618.256"/>
<text text-anchor="middle" x="806.441" y="-831.056" font-family="Times,serif" font-size="14.00">CardsController</text>
<polyline fill="none" stroke="black" points="751.441,-823.256 861.441,-823.256 "/>
<text text-anchor="start" x="759.441" y="-808.056" font-family="Times,serif" font-size="14.00">addCard</text>
<text text-anchor="start" x="759.441" y="-793.056" font-family="Times,serif" font-size="14.00">create</text>
<text text-anchor="start" x="759.441" y="-778.056" font-family="Times,serif" font-size="14.00">destroy</text>
<text text-anchor="start" x="759.441" y="-763.056" font-family="Times,serif" font-size="14.00">edit</text>
<text text-anchor="start" x="759.441" y="-748.056" font-family="Times,serif" font-size="14.00">getByUserId</text>
<text text-anchor="start" x="759.441" y="-733.056" font-family="Times,serif" font-size="14.00">index</text>
<text text-anchor="start" x="759.441" y="-718.056" font-family="Times,serif" font-size="14.00">new</text>
<text text-anchor="start" x="759.441" y="-703.056" font-family="Times,serif" font-size="14.00">removeCard</text>
<text text-anchor="start" x="759.441" y="-688.056" font-family="Times,serif" font-size="14.00">show</text>
<text text-anchor="start" x="759.441" y="-673.056" font-family="Times,serif" font-size="14.00">update</text>
<polyline fill="none" stroke="black" points="751.441,-665.256 861.441,-665.256 "/>
<polyline fill="none" stroke="black" points="751.441,-641.256 861.441,-641.256 "/>
<text text-anchor="start" x="759.441" y="-626.056" font-family="Times,serif" font-size="14.00">_layout</text>
</g>
<!-- ApplicationController&#45;&gt;CardsController -->
<g id="edge2" class="edge"><title>ApplicationController&#45;&gt;CardsController</title>
<path fill="none" stroke="black" d="M536.158,-540.967C599.002,-585.444 692.467,-651.592 751.391,-693.294"/>
</g>
<!-- DistancesController -->
<g id="node4" class="node"><title>DistancesController</title>
<polyline fill="none" stroke="black" points="286.847,-7.57422 393.847,-7.57422 "/>
<path fill="none" stroke="black" d="M393.847,-7.57422C399.847,-7.57422 405.847,-13.5742 405.847,-19.5742"/>
<polyline fill="none" stroke="black" points="405.847,-19.5742 405.847,-178.574 "/>
<path fill="none" stroke="black" d="M405.847,-178.574C405.847,-184.574 399.847,-190.574 393.847,-190.574"/>
<polyline fill="none" stroke="black" points="393.847,-190.574 286.847,-190.574 "/>
<path fill="none" stroke="black" d="M286.847,-190.574C280.847,-190.574 274.847,-184.574 274.847,-178.574"/>
<polyline fill="none" stroke="black" points="274.847,-178.574 274.847,-19.5742 "/>
<path fill="none" stroke="black" d="M274.847,-19.5742C274.847,-13.5742 280.847,-7.57422 286.847,-7.57422"/>
<text text-anchor="middle" x="340.347" y="-175.374" font-family="Times,serif" font-size="14.00">DistancesController</text>
<polyline fill="none" stroke="black" points="274.847,-167.574 405.847,-167.574 "/>
<text text-anchor="start" x="282.847" y="-152.374" font-family="Times,serif" font-size="14.00">create</text>
<text text-anchor="start" x="282.847" y="-137.374" font-family="Times,serif" font-size="14.00">destroy</text>
<text text-anchor="start" x="282.847" y="-122.374" font-family="Times,serif" font-size="14.00">edit</text>
<text text-anchor="start" x="282.847" y="-107.374" font-family="Times,serif" font-size="14.00">index</text>
<text text-anchor="start" x="282.847" y="-92.3742" font-family="Times,serif" font-size="14.00">new</text>
<text text-anchor="start" x="282.847" y="-77.3742" font-family="Times,serif" font-size="14.00">show</text>
<text text-anchor="start" x="282.847" y="-62.3742" font-family="Times,serif" font-size="14.00">update</text>
<polyline fill="none" stroke="black" points="274.847,-54.5742 405.847,-54.5742 "/>
<polyline fill="none" stroke="black" points="274.847,-30.5742 405.847,-30.5742 "/>
<text text-anchor="start" x="282.847" y="-15.3742" font-family="Times,serif" font-size="14.00">_layout</text>
</g>
<!-- ApplicationController&#45;&gt;DistancesController -->
<g id="edge4" class="edge"><title>ApplicationController&#45;&gt;DistancesController</title>
<path fill="none" stroke="black" d="M454.716,-447.343C434.039,-384.377 396.851,-271.136 370.5,-190.894"/>
</g>
<!-- PricesController -->
<g id="node5" class="node"><title>PricesController</title>
<polyline fill="none" stroke="black" points="302.489,-795.228 389.489,-795.228 "/>
<path fill="none" stroke="black" d="M389.489,-795.228C395.489,-795.228 401.489,-801.228 401.489,-807.228"/>
<polyline fill="none" stroke="black" points="401.489,-807.228 401.489,-966.228 "/>
<path fill="none" stroke="black" d="M401.489,-966.228C401.489,-972.228 395.489,-978.228 389.489,-978.228"/>
<polyline fill="none" stroke="black" points="389.489,-978.228 302.489,-978.228 "/>
<path fill="none" stroke="black" d="M302.489,-978.228C296.489,-978.228 290.489,-972.228 290.489,-966.228"/>
<polyline fill="none" stroke="black" points="290.489,-966.228 290.489,-807.228 "/>
<path fill="none" stroke="black" d="M290.489,-807.228C290.489,-801.228 296.489,-795.228 302.489,-795.228"/>
<text text-anchor="middle" x="345.989" y="-963.028" font-family="Times,serif" font-size="14.00">PricesController</text>
<polyline fill="none" stroke="black" points="290.489,-955.228 401.489,-955.228 "/>
<text text-anchor="start" x="298.489" y="-940.028" font-family="Times,serif" font-size="14.00">create</text>
<text text-anchor="start" x="298.489" y="-925.028" font-family="Times,serif" font-size="14.00">destroy</text>
<text text-anchor="start" x="298.489" y="-910.028" font-family="Times,serif" font-size="14.00">edit</text>
<text text-anchor="start" x="298.489" y="-895.028" font-family="Times,serif" font-size="14.00">index</text>
<text text-anchor="start" x="298.489" y="-880.028" font-family="Times,serif" font-size="14.00">new</text>
<text text-anchor="start" x="298.489" y="-865.028" font-family="Times,serif" font-size="14.00">show</text>
<text text-anchor="start" x="298.489" y="-850.028" font-family="Times,serif" font-size="14.00">update</text>
<polyline fill="none" stroke="black" points="290.489,-842.228 401.489,-842.228 "/>
<polyline fill="none" stroke="black" points="290.489,-818.228 401.489,-818.228 "/>
<text text-anchor="start" x="298.489" y="-803.028" font-family="Times,serif" font-size="14.00">_layout</text>
</g>
<!-- ApplicationController&#45;&gt;PricesController -->
<g id="edge6" class="edge"><title>ApplicationController&#45;&gt;PricesController</title>
<path fill="none" stroke="black" d="M455.386,-540.79C435.639,-603.234 400.152,-715.453 374.954,-795.135"/>
</g>
<!-- RouteConnectionsController -->
<g id="node6" class="node"><title>RouteConnectionsController</title>
<polyline fill="none" stroke="black" points="521.934,-792.876 680.934,-792.876 "/>
<path fill="none" stroke="black" d="M680.934,-792.876C686.934,-792.876 692.934,-798.876 692.934,-804.876"/>
<polyline fill="none" stroke="black" points="692.934,-804.876 692.934,-963.876 "/>
<path fill="none" stroke="black" d="M692.934,-963.876C692.934,-969.876 686.934,-975.876 680.934,-975.876"/>
<polyline fill="none" stroke="black" points="680.934,-975.876 521.934,-975.876 "/>
<path fill="none" stroke="black" d="M521.934,-975.876C515.934,-975.876 509.934,-969.876 509.934,-963.876"/>
<polyline fill="none" stroke="black" points="509.934,-963.876 509.934,-804.876 "/>
<path fill="none" stroke="black" d="M509.934,-804.876C509.934,-798.876 515.934,-792.876 521.934,-792.876"/>
<text text-anchor="middle" x="601.434" y="-960.676" font-family="Times,serif" font-size="14.00">RouteConnectionsController</text>
<polyline fill="none" stroke="black" points="509.934,-952.876 692.934,-952.876 "/>
<text text-anchor="start" x="517.934" y="-937.676" font-family="Times,serif" font-size="14.00">create</text>
<text text-anchor="start" x="517.934" y="-922.676" font-family="Times,serif" font-size="14.00">destroy</text>
<text text-anchor="start" x="517.934" y="-907.676" font-family="Times,serif" font-size="14.00">edit</text>
<text text-anchor="start" x="517.934" y="-892.676" font-family="Times,serif" font-size="14.00">index</text>
<text text-anchor="start" x="517.934" y="-877.676" font-family="Times,serif" font-size="14.00">new</text>
<text text-anchor="start" x="517.934" y="-862.676" font-family="Times,serif" font-size="14.00">show</text>
<text text-anchor="start" x="517.934" y="-847.676" font-family="Times,serif" font-size="14.00">update</text>
<polyline fill="none" stroke="black" points="509.934,-839.876 692.934,-839.876 "/>
<polyline fill="none" stroke="black" points="509.934,-815.876 692.934,-815.876 "/>
<text text-anchor="start" x="517.934" y="-800.676" font-family="Times,serif" font-size="14.00">_layout</text>
</g>
<!-- ApplicationController&#45;&gt;RouteConnectionsController -->
<g id="edge8" class="edge"><title>ApplicationController&#45;&gt;RouteConnectionsController</title>
<path fill="none" stroke="black" d="M485.822,-540.898C506.688,-602.891 544.003,-713.752 570.595,-792.756"/>
</g>
<!-- RouteStopsController -->
<g id="node7" class="node"><title>RouteStopsController</title>
<polyline fill="none" stroke="black" points="78.885,-646.52 197.885,-646.52 "/>
<path fill="none" stroke="black" d="M197.885,-646.52C203.885,-646.52 209.885,-652.52 209.885,-658.52"/>
<polyline fill="none" stroke="black" points="209.885,-658.52 209.885,-817.52 "/>
<path fill="none" stroke="black" d="M209.885,-817.52C209.885,-823.52 203.885,-829.52 197.885,-829.52"/>
<polyline fill="none" stroke="black" points="197.885,-829.52 78.885,-829.52 "/>
<path fill="none" stroke="black" d="M78.885,-829.52C72.885,-829.52 66.885,-823.52 66.885,-817.52"/>
<polyline fill="none" stroke="black" points="66.885,-817.52 66.885,-658.52 "/>
<path fill="none" stroke="black" d="M66.885,-658.52C66.885,-652.52 72.885,-646.52 78.885,-646.52"/>
<text text-anchor="middle" x="138.385" y="-814.32" font-family="Times,serif" font-size="14.00">RouteStopsController</text>
<polyline fill="none" stroke="black" points="66.885,-806.52 209.885,-806.52 "/>
<text text-anchor="start" x="74.885" y="-791.32" font-family="Times,serif" font-size="14.00">create</text>
<text text-anchor="start" x="74.885" y="-776.32" font-family="Times,serif" font-size="14.00">destroy</text>
<text text-anchor="start" x="74.885" y="-761.32" font-family="Times,serif" font-size="14.00">edit</text>
<text text-anchor="start" x="74.885" y="-746.32" font-family="Times,serif" font-size="14.00">index</text>
<text text-anchor="start" x="74.885" y="-731.32" font-family="Times,serif" font-size="14.00">new</text>
<text text-anchor="start" x="74.885" y="-716.32" font-family="Times,serif" font-size="14.00">show</text>
<text text-anchor="start" x="74.885" y="-701.32" font-family="Times,serif" font-size="14.00">update</text>
<polyline fill="none" stroke="black" points="66.885,-693.52 209.885,-693.52 "/>
<polyline fill="none" stroke="black" points="66.885,-669.52 209.885,-669.52 "/>
<text text-anchor="start" x="74.885" y="-654.32" font-family="Times,serif" font-size="14.00">_layout</text>
</g>
<!-- ApplicationController&#45;&gt;RouteStopsController -->
<g id="edge10" class="edge"><title>ApplicationController&#45;&gt;RouteStopsController</title>
<path fill="none" stroke="black" d="M406.544,-540.941C350.387,-582.213 268.563,-642.348 210.088,-685.323"/>
</g>
<!-- RoutesController -->
<g id="node8" class="node"><title>RoutesController</title>
<polyline fill="none" stroke="black" points="12,-389.408 104,-389.408 "/>
<path fill="none" stroke="black" d="M104,-389.408C110,-389.408 116,-395.408 116,-401.408"/>
<polyline fill="none" stroke="black" points="116,-401.408 116,-590.408 "/>
<path fill="none" stroke="black" d="M116,-590.408C116,-596.408 110,-602.408 104,-602.408"/>
<polyline fill="none" stroke="black" points="104,-602.408 12,-602.408 "/>
<path fill="none" stroke="black" d="M12,-602.408C6,-602.408 0,-596.408 0,-590.408"/>
<polyline fill="none" stroke="black" points="0,-590.408 0,-401.408 "/>
<path fill="none" stroke="black" d="M0,-401.408C0,-395.408 6,-389.408 12,-389.408"/>
<text text-anchor="middle" x="58" y="-587.208" font-family="Times,serif" font-size="14.00">RoutesController</text>
<polyline fill="none" stroke="black" points="0,-579.408 116,-579.408 "/>
<text text-anchor="start" x="8" y="-564.208" font-family="Times,serif" font-size="14.00">calculate_routes</text>
<text text-anchor="start" x="8" y="-549.208" font-family="Times,serif" font-size="14.00">create</text>
<text text-anchor="start" x="8" y="-534.208" font-family="Times,serif" font-size="14.00">destroy</text>
<text text-anchor="start" x="8" y="-519.208" font-family="Times,serif" font-size="14.00">edit</text>
<text text-anchor="start" x="8" y="-504.208" font-family="Times,serif" font-size="14.00">get_route</text>
<text text-anchor="start" x="8" y="-489.208" font-family="Times,serif" font-size="14.00">index</text>
<text text-anchor="start" x="8" y="-474.208" font-family="Times,serif" font-size="14.00">new</text>
<text text-anchor="start" x="8" y="-459.208" font-family="Times,serif" font-size="14.00">show</text>
<text text-anchor="start" x="8" y="-444.208" font-family="Times,serif" font-size="14.00">update</text>
<polyline fill="none" stroke="black" points="0,-436.408 116,-436.408 "/>
<polyline fill="none" stroke="black" points="0,-412.408 116,-412.408 "/>
<text text-anchor="start" x="8" y="-397.208" font-family="Times,serif" font-size="14.00">_layout</text>
</g>
<!-- ApplicationController&#45;&gt;RoutesController -->
<g id="edge12" class="edge"><title>ApplicationController&#45;&gt;RoutesController</title>
<path fill="none" stroke="black" d="M369.034,-494.637C289.558,-494.961 181.653,-495.402 116.074,-495.67"/>
</g>
<!-- StopsController -->
<g id="node9" class="node"><title>StopsController</title>
<polyline fill="none" stroke="black" points="838.687,-397.548 923.687,-397.548 "/>
<path fill="none" stroke="black" d="M923.687,-397.548C929.687,-397.548 935.687,-403.548 935.687,-409.548"/>
<polyline fill="none" stroke="black" points="935.687,-409.548 935.687,-568.548 "/>
<path fill="none" stroke="black" d="M935.687,-568.548C935.687,-574.548 929.687,-580.548 923.687,-580.548"/>
<polyline fill="none" stroke="black" points="923.687,-580.548 838.687,-580.548 "/>
<path fill="none" stroke="black" d="M838.687,-580.548C832.687,-580.548 826.687,-574.548 826.687,-568.548"/>
<polyline fill="none" stroke="black" points="826.687,-568.548 826.687,-409.548 "/>
<path fill="none" stroke="black" d="M826.687,-409.548C826.687,-403.548 832.687,-397.548 838.687,-397.548"/>
<text text-anchor="middle" x="881.187" y="-565.348" font-family="Times,serif" font-size="14.00">StopsController</text>
<polyline fill="none" stroke="black" points="826.687,-557.548 935.687,-557.548 "/>
<text text-anchor="start" x="834.687" y="-542.348" font-family="Times,serif" font-size="14.00">create</text>
<text text-anchor="start" x="834.687" y="-527.348" font-family="Times,serif" font-size="14.00">destroy</text>
<text text-anchor="start" x="834.687" y="-512.348" font-family="Times,serif" font-size="14.00">edit</text>
<text text-anchor="start" x="834.687" y="-497.348" font-family="Times,serif" font-size="14.00">index</text>
<text text-anchor="start" x="834.687" y="-482.348" font-family="Times,serif" font-size="14.00">new</text>
<text text-anchor="start" x="834.687" y="-467.348" font-family="Times,serif" font-size="14.00">show</text>
<text text-anchor="start" x="834.687" y="-452.348" font-family="Times,serif" font-size="14.00">update</text>
<polyline fill="none" stroke="black" points="826.687,-444.548 935.687,-444.548 "/>
<polyline fill="none" stroke="black" points="826.687,-420.548 935.687,-420.548 "/>
<text text-anchor="start" x="834.687" y="-405.348" font-family="Times,serif" font-size="14.00">_layout</text>
</g>
<!-- ApplicationController&#45;&gt;StopsController -->
<g id="edge14" class="edge"><title>ApplicationController&#45;&gt;StopsController</title>
<path fill="none" stroke="black" d="M571.198,-492.951C651.787,-491.936 761.555,-490.554 826.532,-489.736"/>
</g>
<!-- TicketRoutesController -->
<g id="node10" class="node"><title>TicketRoutesController</title>
<polyline fill="none" stroke="black" points="72.3218,-154.986 200.322,-154.986 "/>
<path fill="none" stroke="black" d="M200.322,-154.986C206.322,-154.986 212.322,-160.986 212.322,-166.986"/>
<polyline fill="none" stroke="black" points="212.322,-166.986 212.322,-340.986 "/>
<path fill="none" stroke="black" d="M212.322,-340.986C212.322,-346.986 206.322,-352.986 200.322,-352.986"/>
<polyline fill="none" stroke="black" points="200.322,-352.986 72.3218,-352.986 "/>
<path fill="none" stroke="black" d="M72.3218,-352.986C66.3218,-352.986 60.3218,-346.986 60.3218,-340.986"/>
<polyline fill="none" stroke="black" points="60.3218,-340.986 60.3218,-166.986 "/>
<path fill="none" stroke="black" d="M60.3218,-166.986C60.3218,-160.986 66.3218,-154.986 72.3218,-154.986"/>
<text text-anchor="middle" x="136.322" y="-337.786" font-family="Times,serif" font-size="14.00">TicketRoutesController</text>
<polyline fill="none" stroke="black" points="60.3218,-329.986 212.322,-329.986 "/>
<text text-anchor="start" x="68.3218" y="-314.786" font-family="Times,serif" font-size="14.00">create</text>
<text text-anchor="start" x="68.3218" y="-299.786" font-family="Times,serif" font-size="14.00">destroy</text>
<text text-anchor="start" x="68.3218" y="-284.786" font-family="Times,serif" font-size="14.00">edit</text>
<text text-anchor="start" x="68.3218" y="-269.786" font-family="Times,serif" font-size="14.00">index</text>
<text text-anchor="start" x="68.3218" y="-254.786" font-family="Times,serif" font-size="14.00">new</text>
<text text-anchor="start" x="68.3218" y="-239.786" font-family="Times,serif" font-size="14.00">new_ticket</text>
<text text-anchor="start" x="68.3218" y="-224.786" font-family="Times,serif" font-size="14.00">show</text>
<text text-anchor="start" x="68.3218" y="-209.786" font-family="Times,serif" font-size="14.00">update</text>
<polyline fill="none" stroke="black" points="60.3218,-201.986 212.322,-201.986 "/>
<polyline fill="none" stroke="black" points="60.3218,-177.986 212.322,-177.986 "/>
<text text-anchor="start" x="68.3218" y="-162.786" font-family="Times,serif" font-size="14.00">_layout</text>
</g>
<!-- ApplicationController&#45;&gt;TicketRoutesController -->
<g id="edge16" class="edge"><title>ApplicationController&#45;&gt;TicketRoutesController</title>
<path fill="none" stroke="black" d="M405.358,-447.618C350.188,-407.912 270.824,-350.791 212.588,-308.877"/>
</g>
<!-- TicketsController -->
<g id="node11" class="node"><title>TicketsController</title>
<polyline fill="none" stroke="black" points="756.459,-100.548 849.459,-100.548 "/>
<path fill="none" stroke="black" d="M849.459,-100.548C855.459,-100.548 861.459,-106.548 861.459,-112.548"/>
<polyline fill="none" stroke="black" points="861.459,-112.548 861.459,-376.548 "/>
<path fill="none" stroke="black" d="M861.459,-376.548C861.459,-382.548 855.459,-388.548 849.459,-388.548"/>
<polyline fill="none" stroke="black" points="849.459,-388.548 756.459,-388.548 "/>
<path fill="none" stroke="black" d="M756.459,-388.548C750.459,-388.548 744.459,-382.548 744.459,-376.548"/>
<polyline fill="none" stroke="black" points="744.459,-376.548 744.459,-112.548 "/>
<path fill="none" stroke="black" d="M744.459,-112.548C744.459,-106.548 750.459,-100.548 756.459,-100.548"/>
<text text-anchor="middle" x="802.959" y="-373.348" font-family="Times,serif" font-size="14.00">TicketsController</text>
<polyline fill="none" stroke="black" points="744.459,-365.548 861.459,-365.548 "/>
<text text-anchor="start" x="752.459" y="-350.348" font-family="Times,serif" font-size="14.00">cancel</text>
<text text-anchor="start" x="752.459" y="-335.348" font-family="Times,serif" font-size="14.00">create</text>
<text text-anchor="start" x="752.459" y="-320.348" font-family="Times,serif" font-size="14.00">destroy</text>
<text text-anchor="start" x="752.459" y="-305.348" font-family="Times,serif" font-size="14.00">edit</text>
<text text-anchor="start" x="752.459" y="-290.348" font-family="Times,serif" font-size="14.00">getByUserId</text>
<text text-anchor="start" x="752.459" y="-275.348" font-family="Times,serif" font-size="14.00">getPaid</text>
<text text-anchor="start" x="752.459" y="-260.348" font-family="Times,serif" font-size="14.00">getPaidByUserId</text>
<text text-anchor="start" x="752.459" y="-245.348" font-family="Times,serif" font-size="14.00">index</text>
<text text-anchor="start" x="752.459" y="-230.348" font-family="Times,serif" font-size="14.00">new</text>
<text text-anchor="start" x="752.459" y="-215.348" font-family="Times,serif" font-size="14.00">new_ticket</text>
<text text-anchor="start" x="752.459" y="-200.348" font-family="Times,serif" font-size="14.00">pay</text>
<text text-anchor="start" x="752.459" y="-185.348" font-family="Times,serif" font-size="14.00">show</text>
<text text-anchor="start" x="752.459" y="-170.348" font-family="Times,serif" font-size="14.00">update</text>
<text text-anchor="start" x="752.459" y="-155.348" font-family="Times,serif" font-size="14.00">verify_ticket</text>
<polyline fill="none" stroke="black" points="744.459,-147.548 861.459,-147.548 "/>
<polyline fill="none" stroke="black" points="744.459,-123.548 861.459,-123.548 "/>
<text text-anchor="start" x="752.459" y="-108.348" font-family="Times,serif" font-size="14.00">_layout</text>
</g>
<!-- ApplicationController&#45;&gt;TicketsController -->
<g id="edge18" class="edge"><title>ApplicationController&#45;&gt;TicketsController</title>
<path fill="none" stroke="black" d="M532.327,-447.554C593.103,-401.965 684.904,-333.104 744.397,-288.477"/>
</g>
<!-- UsersController -->
<g id="node12" class="node"><title>UsersController</title>
<polyline fill="none" stroke="black" points="549.654,-0.5 634.654,-0.5 "/>
<path fill="none" stroke="black" d="M634.654,-0.5C640.654,-0.5 646.654,-6.5 646.654,-12.5"/>
<polyline fill="none" stroke="black" points="646.654,-12.5 646.654,-201.5 "/>
<path fill="none" stroke="black" d="M646.654,-201.5C646.654,-207.5 640.654,-213.5 634.654,-213.5"/>
<polyline fill="none" stroke="black" points="634.654,-213.5 549.654,-213.5 "/>
<path fill="none" stroke="black" d="M549.654,-213.5C543.654,-213.5 537.654,-207.5 537.654,-201.5"/>
<polyline fill="none" stroke="black" points="537.654,-201.5 537.654,-12.5 "/>
<path fill="none" stroke="black" d="M537.654,-12.5C537.654,-6.5 543.654,-0.5 549.654,-0.5"/>
<text text-anchor="middle" x="592.154" y="-198.3" font-family="Times,serif" font-size="14.00">UsersController</text>
<polyline fill="none" stroke="black" points="537.654,-190.5 646.654,-190.5 "/>
<text text-anchor="start" x="545.654" y="-175.3" font-family="Times,serif" font-size="14.00">create</text>
<text text-anchor="start" x="545.654" y="-160.3" font-family="Times,serif" font-size="14.00">destroy</text>
<text text-anchor="start" x="545.654" y="-145.3" font-family="Times,serif" font-size="14.00">edit</text>
<text text-anchor="start" x="545.654" y="-130.3" font-family="Times,serif" font-size="14.00">index</text>
<text text-anchor="start" x="545.654" y="-115.3" font-family="Times,serif" font-size="14.00">login</text>
<text text-anchor="start" x="545.654" y="-100.3" font-family="Times,serif" font-size="14.00">new</text>
<text text-anchor="start" x="545.654" y="-85.3" font-family="Times,serif" font-size="14.00">show</text>
<text text-anchor="start" x="545.654" y="-70.3" font-family="Times,serif" font-size="14.00">signup</text>
<text text-anchor="start" x="545.654" y="-55.3" font-family="Times,serif" font-size="14.00">update</text>
<polyline fill="none" stroke="black" points="537.654,-47.5 646.654,-47.5 "/>
<polyline fill="none" stroke="black" points="537.654,-23.5 646.654,-23.5 "/>
<text text-anchor="start" x="545.654" y="-8.3" font-family="Times,serif" font-size="14.00">_layout</text>
</g>
<!-- ApplicationController&#45;&gt;UsersController -->
<g id="edge20" class="edge"><title>ApplicationController&#45;&gt;UsersController</title>
<path fill="none" stroke="black" d="M484.833,-447.515C502.964,-389.986 534.326,-290.478 558.481,-213.84"/>
</g>
</g>
</svg>
