<?xml version="1.0" encoding="UTF-8" standalone="no"?>
<!DOCTYPE svg PUBLIC "-//W3C//DTD SVG 1.1//EN"
 "http://www.w3.org/Graphics/SVG/1.1/DTD/svg11.dtd">
<!-- Generated by graphviz version 2.28.0 (20121110.1539)
 -->
<!-- Title: models_diagram Pages: 1 -->
<svg width="1045pt" height="584pt"
 viewBox="0.00 0.00 1045.00 584.00" xmlns="http://www.w3.org/2000/svg" xmlns:xlink="http://www.w3.org/1999/xlink">
<g id="graph1" class="graph" transform="scale(1 1) rotate(0) translate(4 580)">
<title>models_diagram</title>
<polygon fill="white" stroke="white" points="-4,5 -4,-580 1042,-580 1042,5 -4,5"/>
<!-- _diagram_info -->
<g id="node1" class="node"><title>_diagram_info</title>
<text text-anchor="start" x="8" y="-539.6" font-family="Times,serif" font-size="13.00">Models diagram</text>
<text text-anchor="start" x="8" y="-525.6" font-family="Times,serif" font-size="13.00">Date: Nov 10 2012 &#45; 15:51</text>
<text text-anchor="start" x="8" y="-511.6" font-family="Times,serif" font-size="13.00">Migration version: 20121107213514</text>
<text text-anchor="start" x="8" y="-497.6" font-family="Times,serif" font-size="13.00">Generated by RailRoady 1.1.0</text>
<text text-anchor="start" x="8" y="-483.6" font-family="Times,serif" font-size="13.00">http://railroady.prestonlee.com</text>
</g>
<!-- Card -->
<g id="node2" class="node"><title>Card</title>
<polyline fill="none" stroke="black" points="231.5,-220.5 342.5,-220.5 "/>
<path fill="none" stroke="black" d="M342.5,-220.5C348.5,-220.5 354.5,-226.5 354.5,-232.5"/>
<polyline fill="none" stroke="black" points="354.5,-232.5 354.5,-359.5 "/>
<path fill="none" stroke="black" d="M354.5,-359.5C354.5,-365.5 348.5,-371.5 342.5,-371.5"/>
<polyline fill="none" stroke="black" points="342.5,-371.5 231.5,-371.5 "/>
<path fill="none" stroke="black" d="M231.5,-371.5C225.5,-371.5 219.5,-365.5 219.5,-359.5"/>
<polyline fill="none" stroke="black" points="219.5,-359.5 219.5,-232.5 "/>
<path fill="none" stroke="black" d="M219.5,-232.5C219.5,-226.5 225.5,-220.5 231.5,-220.5"/>
<text text-anchor="middle" x="287" y="-356.3" font-family="Times,serif" font-size="14.00">Card</text>
<polyline fill="none" stroke="black" points="219.5,-348.5 354.5,-348.5 "/>
<text text-anchor="start" x="227.5" y="-333.3" font-family="Times,serif" font-size="14.00">id :integer</text>
<text text-anchor="start" x="227.5" y="-318.3" font-family="Times,serif" font-size="14.00">number :string</text>
<text text-anchor="start" x="227.5" y="-303.3" font-family="Times,serif" font-size="14.00">card_type :string</text>
<text text-anchor="start" x="227.5" y="-288.3" font-family="Times,serif" font-size="14.00">validity :date</text>
<text text-anchor="start" x="227.5" y="-273.3" font-family="Times,serif" font-size="14.00">user_id :integer</text>
<text text-anchor="start" x="227.5" y="-258.3" font-family="Times,serif" font-size="14.00">created_at :datetime</text>
<text text-anchor="start" x="227.5" y="-243.3" font-family="Times,serif" font-size="14.00">updated_at :datetime</text>
<text text-anchor="start" x="227.5" y="-228.3" font-family="Times,serif" font-size="14.00">cvv :integer</text>
</g>
<!-- Distance -->
<g id="node3" class="node"><title>Distance</title>
<polyline fill="none" stroke="black" points="735.5,-235.5 846.5,-235.5 "/>
<path fill="none" stroke="black" d="M846.5,-235.5C852.5,-235.5 858.5,-241.5 858.5,-247.5"/>
<polyline fill="none" stroke="black" points="858.5,-247.5 858.5,-344.5 "/>
<path fill="none" stroke="black" d="M858.5,-344.5C858.5,-350.5 852.5,-356.5 846.5,-356.5"/>
<polyline fill="none" stroke="black" points="846.5,-356.5 735.5,-356.5 "/>
<path fill="none" stroke="black" d="M735.5,-356.5C729.5,-356.5 723.5,-350.5 723.5,-344.5"/>
<polyline fill="none" stroke="black" points="723.5,-344.5 723.5,-247.5 "/>
<path fill="none" stroke="black" d="M723.5,-247.5C723.5,-241.5 729.5,-235.5 735.5,-235.5"/>
<text text-anchor="middle" x="791" y="-341.3" font-family="Times,serif" font-size="14.00">Distance</text>
<polyline fill="none" stroke="black" points="723.5,-333.5 858.5,-333.5 "/>
<text text-anchor="start" x="731.5" y="-318.3" font-family="Times,serif" font-size="14.00">id :integer</text>
<text text-anchor="start" x="731.5" y="-303.3" font-family="Times,serif" font-size="14.00">stop1_id :integer</text>
<text text-anchor="start" x="731.5" y="-288.3" font-family="Times,serif" font-size="14.00">stop2_id :integer</text>
<text text-anchor="start" x="731.5" y="-273.3" font-family="Times,serif" font-size="14.00">distance :integer</text>
<text text-anchor="start" x="731.5" y="-258.3" font-family="Times,serif" font-size="14.00">created_at :datetime</text>
<text text-anchor="start" x="731.5" y="-243.3" font-family="Times,serif" font-size="14.00">updated_at :datetime</text>
</g>
<!-- Price -->
<g id="node4" class="node"><title>Price</title>
<polyline fill="none" stroke="black" points="761.5,-469.5 872.5,-469.5 "/>
<path fill="none" stroke="black" d="M872.5,-469.5C878.5,-469.5 884.5,-475.5 884.5,-481.5"/>
<polyline fill="none" stroke="black" points="884.5,-481.5 884.5,-548.5 "/>
<path fill="none" stroke="black" d="M884.5,-548.5C884.5,-554.5 878.5,-560.5 872.5,-560.5"/>
<polyline fill="none" stroke="black" points="872.5,-560.5 761.5,-560.5 "/>
<path fill="none" stroke="black" d="M761.5,-560.5C755.5,-560.5 749.5,-554.5 749.5,-548.5"/>
<polyline fill="none" stroke="black" points="749.5,-548.5 749.5,-481.5 "/>
<path fill="none" stroke="black" d="M749.5,-481.5C749.5,-475.5 755.5,-469.5 761.5,-469.5"/>
<text text-anchor="middle" x="817" y="-545.3" font-family="Times,serif" font-size="14.00">Price</text>
<polyline fill="none" stroke="black" points="749.5,-537.5 884.5,-537.5 "/>
<text text-anchor="start" x="757.5" y="-522.3" font-family="Times,serif" font-size="14.00">id :integer</text>
<text text-anchor="start" x="757.5" y="-507.3" font-family="Times,serif" font-size="14.00">price :float</text>
<text text-anchor="start" x="757.5" y="-492.3" font-family="Times,serif" font-size="14.00">created_at :datetime</text>
<text text-anchor="start" x="757.5" y="-477.3" font-family="Times,serif" font-size="14.00">updated_at :datetime</text>
</g>
<!-- Route -->
<g id="node5" class="node"><title>Route</title>
<polyline fill="none" stroke="black" points="393.5,-462 504.5,-462 "/>
<path fill="none" stroke="black" d="M504.5,-462C510.5,-462 516.5,-468 516.5,-474"/>
<polyline fill="none" stroke="black" points="516.5,-474 516.5,-556 "/>
<path fill="none" stroke="black" d="M516.5,-556C516.5,-562 510.5,-568 504.5,-568"/>
<polyline fill="none" stroke="black" points="504.5,-568 393.5,-568 "/>
<path fill="none" stroke="black" d="M393.5,-568C387.5,-568 381.5,-562 381.5,-556"/>
<polyline fill="none" stroke="black" points="381.5,-556 381.5,-474 "/>
<path fill="none" stroke="black" d="M381.5,-474C381.5,-468 387.5,-462 393.5,-462"/>
<text text-anchor="middle" x="449" y="-552.8" font-family="Times,serif" font-size="14.00">Route</text>
<polyline fill="none" stroke="black" points="381.5,-545 516.5,-545 "/>
<text text-anchor="start" x="389.5" y="-529.8" font-family="Times,serif" font-size="14.00">id :integer</text>
<text text-anchor="start" x="389.5" y="-514.8" font-family="Times,serif" font-size="14.00">starts :time</text>
<text text-anchor="start" x="389.5" y="-499.8" font-family="Times,serif" font-size="14.00">ends :time</text>
<text text-anchor="start" x="389.5" y="-484.8" font-family="Times,serif" font-size="14.00">created_at :datetime</text>
<text text-anchor="start" x="389.5" y="-469.8" font-family="Times,serif" font-size="14.00">updated_at :datetime</text>
</g>
<!-- RouteStop -->
<g id="node7" class="node"><title>RouteStop</title>
<polyline fill="none" stroke="black" points="582.5,-228 693.5,-228 "/>
<path fill="none" stroke="black" d="M693.5,-228C699.5,-228 705.5,-234 705.5,-240"/>
<polyline fill="none" stroke="black" points="705.5,-240 705.5,-352 "/>
<path fill="none" stroke="black" d="M705.5,-352C705.5,-358 699.5,-364 693.5,-364"/>
<polyline fill="none" stroke="black" points="693.5,-364 582.5,-364 "/>
<path fill="none" stroke="black" d="M582.5,-364C576.5,-364 570.5,-358 570.5,-352"/>
<polyline fill="none" stroke="black" points="570.5,-352 570.5,-240 "/>
<path fill="none" stroke="black" d="M570.5,-240C570.5,-234 576.5,-228 582.5,-228"/>
<text text-anchor="middle" x="638" y="-348.8" font-family="Times,serif" font-size="14.00">RouteStop</text>
<polyline fill="none" stroke="black" points="570.5,-341 705.5,-341 "/>
<text text-anchor="start" x="578.5" y="-325.8" font-family="Times,serif" font-size="14.00">id :integer</text>
<text text-anchor="start" x="578.5" y="-310.8" font-family="Times,serif" font-size="14.00">route_id :integer</text>
<text text-anchor="start" x="578.5" y="-295.8" font-family="Times,serif" font-size="14.00">stop_id :integer</text>
<text text-anchor="start" x="578.5" y="-280.8" font-family="Times,serif" font-size="14.00">stop_order :integer</text>
<text text-anchor="start" x="578.5" y="-265.8" font-family="Times,serif" font-size="14.00">delay :integer</text>
<text text-anchor="start" x="578.5" y="-250.8" font-family="Times,serif" font-size="14.00">created_at :datetime</text>
<text text-anchor="start" x="578.5" y="-235.8" font-family="Times,serif" font-size="14.00">updated_at :datetime</text>
</g>
<!-- Route&#45;&gt;RouteStop -->
<g id="edge2" class="edge"><title>Route&#45;&gt;RouteStop</title>
<path fill="none" stroke="#9817c3" d="M524.08,-481.727C571.164,-461.326 623.298,-438.366 625,-436 637.704,-418.333 643.097,-395.962 644.743,-374.358"/>
<ellipse fill="none" stroke="#9817c3" cx="520.246" cy="-483.387" rx="4.00002" ry="4.00002"/>
<polygon fill="#9817c3" stroke="#9817c3" points="644.753,-374.161 649.752,-364.401 645.005,-369.168 645.258,-364.174 645.258,-364.174 645.258,-364.174 645.005,-369.168 640.763,-363.947 644.753,-374.161 644.753,-374.161"/>
</g>
<!-- Ticket -->
<g id="node9" class="node"><title>Ticket</title>
<polyline fill="none" stroke="black" points="423.5,-190.5 540.5,-190.5 "/>
<path fill="none" stroke="black" d="M540.5,-190.5C546.5,-190.5 552.5,-196.5 552.5,-202.5"/>
<polyline fill="none" stroke="black" points="552.5,-202.5 552.5,-389.5 "/>
<path fill="none" stroke="black" d="M552.5,-389.5C552.5,-395.5 546.5,-401.5 540.5,-401.5"/>
<polyline fill="none" stroke="black" points="540.5,-401.5 423.5,-401.5 "/>
<path fill="none" stroke="black" d="M423.5,-401.5C417.5,-401.5 411.5,-395.5 411.5,-389.5"/>
<polyline fill="none" stroke="black" points="411.5,-389.5 411.5,-202.5 "/>
<path fill="none" stroke="black" d="M411.5,-202.5C411.5,-196.5 417.5,-190.5 423.5,-190.5"/>
<text text-anchor="middle" x="482" y="-386.3" font-family="Times,serif" font-size="14.00">Ticket</text>
<polyline fill="none" stroke="black" points="411.5,-378.5 552.5,-378.5 "/>
<text text-anchor="start" x="419.5" y="-363.3" font-family="Times,serif" font-size="14.00">id :integer</text>
<text text-anchor="start" x="419.5" y="-348.3" font-family="Times,serif" font-size="14.00">user_id :integer</text>
<text text-anchor="start" x="419.5" y="-333.3" font-family="Times,serif" font-size="14.00">price :float</text>
<text text-anchor="start" x="419.5" y="-318.3" font-family="Times,serif" font-size="14.00">paid :boolean</text>
<text text-anchor="start" x="419.5" y="-303.3" font-family="Times,serif" font-size="14.00">created_at :datetime</text>
<text text-anchor="start" x="419.5" y="-288.3" font-family="Times,serif" font-size="14.00">updated_at :datetime</text>
<text text-anchor="start" x="419.5" y="-273.3" font-family="Times,serif" font-size="14.00">departureTime :string</text>
<text text-anchor="start" x="419.5" y="-258.3" font-family="Times,serif" font-size="14.00">arrivalTime :string</text>
<text text-anchor="start" x="419.5" y="-243.3" font-family="Times,serif" font-size="14.00">duration :string</text>
<text text-anchor="start" x="419.5" y="-228.3" font-family="Times,serif" font-size="14.00">departure :string</text>
<text text-anchor="start" x="419.5" y="-213.3" font-family="Times,serif" font-size="14.00">arrival :string</text>
<text text-anchor="start" x="419.5" y="-198.3" font-family="Times,serif" font-size="14.00">date :string</text>
</g>
<!-- Route&#45;&gt;Ticket -->
<g id="edge4" class="edge"><title>Route&#45;&gt;Ticket</title>
<path fill="none" stroke="#439a50" d="M457.93,-453.711C459.604,-442.504 461.347,-430.895 463,-420 463.411,-417.29 463.828,-414.546 464.25,-411.778"/>
<ellipse fill="none" stroke="#439a50" cx="457.315" cy="-457.83" rx="4.00001" ry="4.00001"/>
<polygon fill="#439a50" stroke="#439a50" points="464.283,-411.559 470.24,-402.352 465.037,-406.616 465.792,-401.673 465.792,-401.673 465.792,-401.673 465.037,-406.616 461.343,-400.995 464.283,-411.559 464.283,-411.559"/>
</g>
<!-- TicketRoute -->
<g id="node10" class="node"><title>TicketRoute</title>
<polyline fill="none" stroke="black" points="347,-0.5 481,-0.5 "/>
<path fill="none" stroke="black" d="M481,-0.5C487,-0.5 493,-6.5 493,-12.5"/>
<polyline fill="none" stroke="black" points="493,-12.5 493,-139.5 "/>
<path fill="none" stroke="black" d="M493,-139.5C493,-145.5 487,-151.5 481,-151.5"/>
<polyline fill="none" stroke="black" points="481,-151.5 347,-151.5 "/>
<path fill="none" stroke="black" d="M347,-151.5C341,-151.5 335,-145.5 335,-139.5"/>
<polyline fill="none" stroke="black" points="335,-139.5 335,-12.5 "/>
<path fill="none" stroke="black" d="M335,-12.5C335,-6.5 341,-0.5 347,-0.5"/>
<text text-anchor="middle" x="414" y="-136.3" font-family="Times,serif" font-size="14.00">TicketRoute</text>
<polyline fill="none" stroke="black" points="335,-128.5 493,-128.5 "/>
<text text-anchor="start" x="343" y="-113.3" font-family="Times,serif" font-size="14.00">id :integer</text>
<text text-anchor="start" x="343" y="-98.3" font-family="Times,serif" font-size="14.00">ticket_id :integer</text>
<text text-anchor="start" x="343" y="-83.3" font-family="Times,serif" font-size="14.00">route_id :integer</text>
<text text-anchor="start" x="343" y="-68.3" font-family="Times,serif" font-size="14.00">date :date</text>
<text text-anchor="start" x="343" y="-53.3" font-family="Times,serif" font-size="14.00">created_at :datetime</text>
<text text-anchor="start" x="343" y="-38.3" font-family="Times,serif" font-size="14.00">updated_at :datetime</text>
<text text-anchor="start" x="343" y="-23.3" font-family="Times,serif" font-size="14.00">stop_start_order :integer</text>
<text text-anchor="start" x="343" y="-8.3" font-family="Times,serif" font-size="14.00">stop_end_order :integer</text>
</g>
<!-- Route&#45;&gt;TicketRoute -->
<g id="edge6" class="edge"><title>Route&#45;&gt;TicketRoute</title>
<path fill="none" stroke="#3bef31" d="M419.473,-454.298C412.691,-437.759 406.459,-419.526 403,-402 387.118,-321.527 392.807,-227.713 400.697,-161.622"/>
<ellipse fill="none" stroke="#3bef31" cx="421.067" cy="-458.082" rx="4.00002" ry="4.00002"/>
<polygon fill="#3bef31" stroke="#3bef31" points="400.701,-161.593 406.393,-152.221 401.314,-156.631 401.927,-151.669 401.927,-151.669 401.927,-151.669 401.314,-156.631 397.461,-151.117 400.701,-161.593 400.701,-161.593"/>
</g>
<!-- RouteConnection -->
<g id="node6" class="node"><title>RouteConnection</title>
<polyline fill="none" stroke="black" points="914.5,-454.5 1025.5,-454.5 "/>
<path fill="none" stroke="black" d="M1025.5,-454.5C1031.5,-454.5 1037.5,-460.5 1037.5,-466.5"/>
<polyline fill="none" stroke="black" points="1037.5,-466.5 1037.5,-563.5 "/>
<path fill="none" stroke="black" d="M1037.5,-563.5C1037.5,-569.5 1031.5,-575.5 1025.5,-575.5"/>
<polyline fill="none" stroke="black" points="1025.5,-575.5 914.5,-575.5 "/>
<path fill="none" stroke="black" d="M914.5,-575.5C908.5,-575.5 902.5,-569.5 902.5,-563.5"/>
<polyline fill="none" stroke="black" points="902.5,-563.5 902.5,-466.5 "/>
<path fill="none" stroke="black" d="M902.5,-466.5C902.5,-460.5 908.5,-454.5 914.5,-454.5"/>
<text text-anchor="middle" x="970" y="-560.3" font-family="Times,serif" font-size="14.00">RouteConnection</text>
<polyline fill="none" stroke="black" points="902.5,-552.5 1037.5,-552.5 "/>
<text text-anchor="start" x="910.5" y="-537.3" font-family="Times,serif" font-size="14.00">id :integer</text>
<text text-anchor="start" x="910.5" y="-522.3" font-family="Times,serif" font-size="14.00">route1_id :integer</text>
<text text-anchor="start" x="910.5" y="-507.3" font-family="Times,serif" font-size="14.00">route2_id :integer</text>
<text text-anchor="start" x="910.5" y="-492.3" font-family="Times,serif" font-size="14.00">stop_id :integer</text>
<text text-anchor="start" x="910.5" y="-477.3" font-family="Times,serif" font-size="14.00">created_at :datetime</text>
<text text-anchor="start" x="910.5" y="-462.3" font-family="Times,serif" font-size="14.00">updated_at :datetime</text>
</g>
<!-- Stop -->
<g id="node8" class="node"><title>Stop</title>
<polyline fill="none" stroke="black" points="608.5,-469.5 719.5,-469.5 "/>
<path fill="none" stroke="black" d="M719.5,-469.5C725.5,-469.5 731.5,-475.5 731.5,-481.5"/>
<polyline fill="none" stroke="black" points="731.5,-481.5 731.5,-548.5 "/>
<path fill="none" stroke="black" d="M731.5,-548.5C731.5,-554.5 725.5,-560.5 719.5,-560.5"/>
<polyline fill="none" stroke="black" points="719.5,-560.5 608.5,-560.5 "/>
<path fill="none" stroke="black" d="M608.5,-560.5C602.5,-560.5 596.5,-554.5 596.5,-548.5"/>
<polyline fill="none" stroke="black" points="596.5,-548.5 596.5,-481.5 "/>
<path fill="none" stroke="black" d="M596.5,-481.5C596.5,-475.5 602.5,-469.5 608.5,-469.5"/>
<text text-anchor="middle" x="664" y="-545.3" font-family="Times,serif" font-size="14.00">Stop</text>
<polyline fill="none" stroke="black" points="596.5,-537.5 731.5,-537.5 "/>
<text text-anchor="start" x="604.5" y="-522.3" font-family="Times,serif" font-size="14.00">id :integer</text>
<text text-anchor="start" x="604.5" y="-507.3" font-family="Times,serif" font-size="14.00">location :string</text>
<text text-anchor="start" x="604.5" y="-492.3" font-family="Times,serif" font-size="14.00">created_at :datetime</text>
<text text-anchor="start" x="604.5" y="-477.3" font-family="Times,serif" font-size="14.00">updated_at :datetime</text>
</g>
<!-- Stop&#45;&gt;Distance -->
<g id="edge8" class="edge"><title>Stop&#45;&gt;Distance</title>
<path fill="none" stroke="#7a20d6" d="M694.272,-462.275C711.217,-433.322 732.557,-396.86 750.878,-365.554"/>
<ellipse fill="none" stroke="#7a20d6" cx="692.181" cy="-465.848" rx="4.00002" ry="4.00002"/>
<polygon fill="#7a20d6" stroke="#7a20d6" points="750.909,-365.502 759.844,-359.145 753.434,-361.187 755.96,-356.872 755.96,-356.872 755.96,-356.872 753.434,-361.187 752.076,-354.599 750.909,-365.502 750.909,-365.502"/>
<text text-anchor="middle" x="734.5" y="-424.3" font-family="Times,serif" font-size="14.00">stops1</text>
</g>
<!-- Stop&#45;&gt;Distance -->
<g id="edge10" class="edge"><title>Stop&#45;&gt;Distance</title>
<path fill="none" stroke="#5fa7dd" d="M729.563,-463.861C742.048,-453.218 752.601,-443.074 757,-436 769.915,-415.233 777.926,-389.885 782.893,-366.549"/>
<ellipse fill="none" stroke="#5fa7dd" cx="726.362" cy="-466.545" rx="4.00002" ry="4.00002"/>
<polygon fill="#5fa7dd" stroke="#5fa7dd" points="782.902,-366.501 789.256,-357.563 783.872,-361.596 784.841,-356.691 784.841,-356.691 784.841,-356.691 783.872,-361.596 780.426,-355.818 782.902,-366.501 782.902,-366.501"/>
<text text-anchor="middle" x="782.5" y="-424.3" font-family="Times,serif" font-size="14.00">stops2</text>
</g>
<!-- Stop&#45;&gt;RouteStop -->
<g id="edge16" class="edge"><title>Stop&#45;&gt;RouteStop</title>
<path fill="none" stroke="#989ff9" d="M657.683,-461.279C654.556,-435.182 650.721,-403.172 647.269,-374.362"/>
<ellipse fill="none" stroke="#989ff9" cx="658.168" cy="-465.329" rx="4.00001" ry="4.00001"/>
<polygon fill="#989ff9" stroke="#989ff9" points="647.256,-374.249 650.534,-363.785 646.661,-369.284 646.066,-364.32 646.066,-364.32 646.066,-364.32 646.661,-369.284 641.598,-364.855 647.256,-374.249 647.256,-374.249"/>
</g>
<!-- Stop&#45;&gt;Ticket -->
<g id="edge12" class="edge"><title>Stop&#45;&gt;Ticket</title>
<path fill="none" stroke="#1ac117" d="M588.952,-481.563C568.237,-472.621 545.752,-462.926 525,-454 506.344,-445.976 494.241,-452.914 483,-436 478.002,-428.479 474.444,-420.188 472.011,-411.511"/>
<ellipse fill="none" stroke="#1ac117" cx="592.825" cy="-483.235" rx="4.00002" ry="4.00002"/>
<polygon fill="#1ac117" stroke="#1ac117" points="471.967,-411.317 474.112,-400.563 470.846,-406.445 469.726,-401.572 469.726,-401.572 469.726,-401.572 470.846,-406.445 465.34,-402.58 471.967,-411.317 471.967,-411.317"/>
<text text-anchor="middle" x="513.5" y="-424.3" font-family="Times,serif" font-size="14.00">stops_start</text>
</g>
<!-- Stop&#45;&gt;Ticket -->
<g id="edge14" class="edge"><title>Stop&#45;&gt;Ticket</title>
<path fill="none" stroke="#f1e21f" d="M616.067,-463.462C607.641,-454.386 599.009,-444.963 591,-436 580.424,-424.164 569.669,-411.433 559.24,-398.651"/>
<ellipse fill="none" stroke="#f1e21f" cx="618.84" cy="-466.441" rx="4.00002" ry="4.00002"/>
<polygon fill="#f1e21f" stroke="#f1e21f" points="559.088,-398.464 556.289,-387.861 555.94,-394.579 552.792,-390.694 552.792,-390.694 552.792,-390.694 555.94,-394.579 549.296,-393.527 559.088,-398.464 559.088,-398.464"/>
<text text-anchor="middle" x="620" y="-424.3" font-family="Times,serif" font-size="14.00">stops_end</text>
</g>
<!-- Ticket&#45;&gt;TicketRoute -->
<g id="edge18" class="edge"><title>Ticket&#45;&gt;TicketRoute</title>
<path fill="none" stroke="#903243" d="M446.996,-182.782C444.733,-175.525 442.475,-168.287 440.263,-161.197"/>
<ellipse fill="none" stroke="#903243" cx="448.203" cy="-186.651" rx="4.00001" ry="4.00001"/>
<polygon fill="#903243" stroke="#903243" points="440.258,-161.179 441.576,-150.292 438.769,-156.406 437.28,-151.633 437.28,-151.633 437.28,-151.633 438.769,-156.406 432.984,-152.973 440.258,-161.179 440.258,-161.179"/>
</g>
<!-- User -->
<g id="node11" class="node"><title>User</title>
<polyline fill="none" stroke="black" points="236.5,-454.5 347.5,-454.5 "/>
<path fill="none" stroke="black" d="M347.5,-454.5C353.5,-454.5 359.5,-460.5 359.5,-466.5"/>
<polyline fill="none" stroke="black" points="359.5,-466.5 359.5,-563.5 "/>
<path fill="none" stroke="black" d="M359.5,-563.5C359.5,-569.5 353.5,-575.5 347.5,-575.5"/>
<polyline fill="none" stroke="black" points="347.5,-575.5 236.5,-575.5 "/>
<path fill="none" stroke="black" d="M236.5,-575.5C230.5,-575.5 224.5,-569.5 224.5,-563.5"/>
<polyline fill="none" stroke="black" points="224.5,-563.5 224.5,-466.5 "/>
<path fill="none" stroke="black" d="M224.5,-466.5C224.5,-460.5 230.5,-454.5 236.5,-454.5"/>
<text text-anchor="middle" x="292" y="-560.3" font-family="Times,serif" font-size="14.00">User</text>
<polyline fill="none" stroke="black" points="224.5,-552.5 359.5,-552.5 "/>
<text text-anchor="start" x="232.5" y="-537.3" font-family="Times,serif" font-size="14.00">id :integer</text>
<text text-anchor="start" x="232.5" y="-522.3" font-family="Times,serif" font-size="14.00">name :string</text>
<text text-anchor="start" x="232.5" y="-507.3" font-family="Times,serif" font-size="14.00">username :string</text>
<text text-anchor="start" x="232.5" y="-492.3" font-family="Times,serif" font-size="14.00">password :string</text>
<text text-anchor="start" x="232.5" y="-477.3" font-family="Times,serif" font-size="14.00">created_at :datetime</text>
<text text-anchor="start" x="232.5" y="-462.3" font-family="Times,serif" font-size="14.00">updated_at :datetime</text>
</g>
<!-- User&#45;&gt;Card -->
<g id="edge20" class="edge"><title>User&#45;&gt;Card</title>
<path fill="none" stroke="#2c0621" d="M290.437,-446.174C289.966,-425.726 289.443,-403.025 288.95,-381.627"/>
<ellipse fill="none" stroke="#2c0621" cx="290.535" cy="-450.418" rx="4" ry="4"/>
<polygon fill="#2c0621" stroke="#2c0621" points="288.949,-381.57 293.217,-371.469 288.833,-376.571 288.718,-371.572 288.718,-371.572 288.718,-371.572 288.833,-376.571 284.219,-371.676 288.949,-381.57 288.949,-381.57"/>
</g>
<!-- User&#45;&gt;Ticket -->
<g id="edge22" class="edge"><title>User&#45;&gt;Ticket</title>
<path fill="none" stroke="#e62342" d="M349.596,-448.22C366.95,-428.4 386.285,-406.317 404.701,-385.284"/>
<ellipse fill="none" stroke="#e62342" cx="346.805" cy="-451.407" rx="4.00002" ry="4.00002"/>
<polygon fill="#e62342" stroke="#e62342" points="404.851,-385.113 414.824,-380.553 408.144,-381.351 411.438,-377.589 411.438,-377.589 411.438,-377.589 408.144,-381.351 408.053,-374.625 404.851,-385.113 404.851,-385.113"/>
</g>
</g>
</svg>
