<?xml version="1.0" encoding="UTF-8" standalone="no"?>
<!DOCTYPE svg PUBLIC "-//W3C//DTD SVG 1.1//EN"
 "http://www.w3.org/Graphics/SVG/1.1/DTD/svg11.dtd">
<!-- Generated by graphviz version 2.28.0 (20121110.1539)
 -->
<!-- Title: models_diagram Pages: 1 -->
<svg width="846pt" height="248pt"
 viewBox="0.00 0.00 846.00 248.00" xmlns="http://www.w3.org/2000/svg" xmlns:xlink="http://www.w3.org/1999/xlink">
<g id="graph1" class="graph" transform="scale(1 1) rotate(0) translate(4 244)">
<title>models_diagram</title>
<polygon fill="white" stroke="white" points="-4,5 -4,-244 843,-244 843,5 -4,5"/>
<!-- _diagram_info -->
<g id="node1" class="node"><title>_diagram_info</title>
<text text-anchor="start" x="8" y="-225.6" font-family="Times,serif" font-size="13.00">Models diagram</text>
<text text-anchor="start" x="8" y="-211.6" font-family="Times,serif" font-size="13.00">Date: Nov 10 2012 &#45; 15:51</text>
<text text-anchor="start" x="8" y="-197.6" font-family="Times,serif" font-size="13.00">Migration version: 20121107213514</text>
<text text-anchor="start" x="8" y="-183.6" font-family="Times,serif" font-size="13.00">Generated by RailRoady 1.1.0</text>
<text text-anchor="start" x="8" y="-169.6" font-family="Times,serif" font-size="13.00">http://railroady.prestonlee.com</text>
</g>
<!-- Card -->
<g id="node2" class="node"><title>Card</title>
<ellipse fill="none" stroke="black" cx="239" cy="-92" rx="29.3722" ry="18"/>
<text text-anchor="middle" x="239" y="-88.3" font-family="Times,serif" font-size="14.00">Card</text>
</g>
<!-- Distance -->
<g id="node3" class="node"><title>Distance</title>
<ellipse fill="none" stroke="black" cx="652" cy="-92" rx="42.3701" ry="18"/>
<text text-anchor="middle" x="652" y="-88.3" font-family="Times,serif" font-size="14.00">Distance</text>
</g>
<!-- Price -->
<g id="node4" class="node"><title>Price</title>
<ellipse fill="none" stroke="black" cx="637" cy="-201" rx="29.3479" ry="18"/>
<text text-anchor="middle" x="637" y="-197.3" font-family="Times,serif" font-size="14.00">Price</text>
</g>
<!-- Route -->
<g id="node5" class="node"><title>Route</title>
<ellipse fill="none" stroke="black" cx="346" cy="-201" rx="33.2209" ry="18"/>
<text text-anchor="middle" x="346" y="-197.3" font-family="Times,serif" font-size="14.00">Route</text>
</g>
<!-- RouteStop -->
<g id="node7" class="node"><title>RouteStop</title>
<ellipse fill="none" stroke="black" cx="538" cy="-92" rx="50.5427" ry="18"/>
<text text-anchor="middle" x="538" y="-88.3" font-family="Times,serif" font-size="14.00">RouteStop</text>
</g>
<!-- Route&#45;&gt;RouteStop -->
<g id="edge2" class="edge"><title>Route&#45;&gt;RouteStop</title>
<path fill="none" stroke="#7a37e2" d="M387.027,-197.547C426.71,-193.006 485.982,-180.164 522,-144 528.401,-137.573 532.247,-128.618 534.555,-120.003"/>
<ellipse fill="none" stroke="#7a37e2" cx="382.851" cy="-197.982" rx="4" ry="4"/>
<polygon fill="#7a37e2" stroke="#7a37e2" points="534.555,-120.003 541.023,-111.147 535.587,-115.11 536.62,-110.218 536.62,-110.218 536.62,-110.218 535.587,-115.11 532.217,-109.289 534.555,-120.003 534.555,-120.003"/>
</g>
<!-- Ticket -->
<g id="node9" class="node"><title>Ticket</title>
<ellipse fill="none" stroke="black" cx="358" cy="-92" rx="33.1991" ry="18"/>
<text text-anchor="middle" x="358" y="-88.3" font-family="Times,serif" font-size="14.00">Ticket</text>
</g>
<!-- Route&#45;&gt;Ticket -->
<g id="edge4" class="edge"><title>Route&#45;&gt;Ticket</title>
<path fill="none" stroke="#6f80d1" d="M348.829,-174.772C350.662,-158.434 353.047,-137.161 354.926,-120.408"/>
<ellipse fill="none" stroke="#6f80d1" cx="348.374" cy="-178.834" rx="4.00001" ry="4.00001"/>
<polygon fill="#6f80d1" stroke="#6f80d1" points="354.962,-120.086 360.549,-110.65 355.519,-115.118 356.077,-110.149 356.077,-110.149 356.077,-110.149 355.519,-115.118 351.605,-109.647 354.962,-120.086 354.962,-120.086"/>
</g>
<!-- TicketRoute -->
<g id="node10" class="node"><title>TicketRoute</title>
<ellipse fill="none" stroke="black" cx="317" cy="-18" rx="55.3436" ry="18"/>
<text text-anchor="middle" x="317" y="-14.3" font-family="Times,serif" font-size="14.00">TicketRoute</text>
</g>
<!-- Route&#45;&gt;TicketRoute -->
<g id="edge6" class="edge"><title>Route&#45;&gt;TicketRoute</title>
<path fill="none" stroke="#5e3463" d="M335.102,-175.549C327.795,-157.768 318.833,-132.898 315,-110 312.358,-94.2196 314.709,-89.9974 315,-74 315.163,-65.0348 315.475,-55.2516 315.805,-46.4549"/>
<ellipse fill="none" stroke="#5e3463" cx="336.766" cy="-179.502" rx="4.00001" ry="4.00001"/>
<polygon fill="#5e3463" stroke="#5e3463" points="315.81,-46.3275 320.705,-36.5145 316.009,-41.3315 316.208,-36.3354 316.208,-36.3354 316.208,-36.3354 316.009,-41.3315 311.712,-36.1564 315.81,-46.3275 315.81,-46.3275"/>
</g>
<!-- RouteConnection -->
<g id="node6" class="node"><title>RouteConnection</title>
<ellipse fill="none" stroke="black" cx="762" cy="-201" rx="76.5394" ry="18"/>
<text text-anchor="middle" x="762" y="-197.3" font-family="Times,serif" font-size="14.00">RouteConnection</text>
</g>
<!-- Stop -->
<g id="node8" class="node"><title>Stop</title>
<ellipse fill="none" stroke="black" cx="561" cy="-201" rx="28.3955" ry="18"/>
<text text-anchor="middle" x="561" y="-197.3" font-family="Times,serif" font-size="14.00">Stop</text>
</g>
<!-- Stop&#45;&gt;Distance -->
<g id="edge8" class="edge"><title>Stop&#45;&gt;Distance</title>
<path fill="none" stroke="#f9821e" d="M568.679,-175.125C574.213,-160.201 582.857,-141.551 595,-128 600.849,-121.473 608.203,-115.753 615.666,-110.931"/>
<ellipse fill="none" stroke="#f9821e" cx="567.248" cy="-179.202" rx="4.00001" ry="4.00001"/>
<polygon fill="#f9821e" stroke="#f9821e" points="615.822,-110.837 626.711,-109.546 620.108,-108.263 624.394,-105.688 624.394,-105.688 624.394,-105.688 620.108,-108.263 622.077,-101.83 615.822,-110.837 615.822,-110.837"/>
<text text-anchor="middle" x="613.5" y="-132.3" font-family="Times,serif" font-size="14.00">stops1</text>
</g>
<!-- Stop&#45;&gt;Distance -->
<g id="edge10" class="edge"><title>Stop&#45;&gt;Distance</title>
<path fill="none" stroke="#3d2707" d="M579.486,-178.684C585.097,-172.883 591.505,-166.864 598,-162 611.686,-151.751 620.613,-156.755 632,-144 638.1,-137.167 642.441,-128.257 645.483,-119.799"/>
<ellipse fill="none" stroke="#3d2707" cx="576.475" cy="-181.907" rx="4.00002" ry="4.00002"/>
<polygon fill="#3d2707" stroke="#3d2707" points="645.492,-119.772 652.779,-111.578 646.989,-115.002 648.485,-110.231 648.485,-110.231 648.485,-110.231 646.989,-115.002 644.192,-108.884 645.492,-119.772 645.492,-119.772"/>
<text text-anchor="middle" x="659.5" y="-132.3" font-family="Times,serif" font-size="14.00">stops2</text>
</g>
<!-- Stop&#45;&gt;RouteStop -->
<g id="edge16" class="edge"><title>Stop&#45;&gt;RouteStop</title>
<path fill="none" stroke="#9e7f09" d="M556.508,-174.948C553.925,-161.071 550.504,-143.533 547,-128 546.399,-125.338 545.743,-122.57 545.067,-119.808"/>
<ellipse fill="none" stroke="#9e7f09" cx="557.278" cy="-179.131" rx="4.00001" ry="4.00001"/>
<polygon fill="#9e7f09" stroke="#9e7f09" points="545.049,-119.736 546.962,-108.938 543.824,-114.888 542.599,-110.04 542.599,-110.04 542.599,-110.04 543.824,-114.888 538.236,-111.143 545.049,-119.736 545.049,-119.736"/>
</g>
<!-- Stop&#45;&gt;Ticket -->
<g id="edge12" class="edge"><title>Stop&#45;&gt;Ticket</title>
<path fill="none" stroke="#0ccb4f" d="M524.809,-197.645C484.807,-193.228 420.667,-180.525 380,-144 372.911,-137.633 368.017,-128.583 364.679,-119.87"/>
<ellipse fill="none" stroke="#0ccb4f" cx="528.982" cy="-198.066" rx="4" ry="4"/>
<polygon fill="#0ccb4f" stroke="#0ccb4f" points="364.668,-119.834 365.813,-108.928 363.103,-115.085 361.539,-110.336 361.539,-110.336 361.539,-110.336 363.103,-115.085 357.265,-111.744 364.668,-119.834 364.668,-119.834"/>
<text text-anchor="middle" x="410.5" y="-132.3" font-family="Times,serif" font-size="14.00">stops_start</text>
</g>
<!-- Stop&#45;&gt;Ticket -->
<g id="edge14" class="edge"><title>Stop&#45;&gt;Ticket</title>
<path fill="none" stroke="#f466a7" d="M534.948,-182.903C511.041,-167.57 474.376,-144.943 441,-128 425.901,-120.335 408.725,-112.892 393.931,-106.855"/>
<ellipse fill="none" stroke="#f466a7" cx="538.579" cy="-185.244" rx="4.00002" ry="4.00002"/>
<polygon fill="#f466a7" stroke="#f466a7" points="393.878,-106.834 386.278,-98.9279 389.239,-104.968 384.599,-103.103 384.599,-103.103 384.599,-103.103 389.239,-104.968 382.921,-107.278 393.878,-106.834 393.878,-106.834"/>
<text text-anchor="middle" x="497" y="-132.3" font-family="Times,serif" font-size="14.00">stops_end</text>
</g>
<!-- Ticket&#45;&gt;TicketRoute -->
<g id="edge18" class="edge"><title>Ticket&#45;&gt;TicketRoute</title>
<path fill="none" stroke="#ae8d4a" d="M344.596,-67.4621C340.453,-60.1862 335.869,-52.1355 331.646,-44.72"/>
<ellipse fill="none" stroke="#ae8d4a" cx="346.717" cy="-71.1861" rx="4.00002" ry="4.00002"/>
<polygon fill="#ae8d4a" stroke="#ae8d4a" points="331.5,-44.4628 330.462,-33.5461 329.025,-40.1178 326.551,-35.7729 326.551,-35.7729 326.551,-35.7729 329.025,-40.1178 322.641,-37.9997 331.5,-44.4628 331.5,-44.4628"/>
</g>
<!-- User -->
<g id="node11" class="node"><title>User</title>
<ellipse fill="none" stroke="black" cx="253" cy="-201" rx="28.3955" ry="18"/>
<text text-anchor="middle" x="253" y="-197.3" font-family="Times,serif" font-size="14.00">User</text>
</g>
<!-- User&#45;&gt;Card -->
<g id="edge20" class="edge"><title>User&#45;&gt;Card</title>
<path fill="none" stroke="#537f01" d="M249.699,-174.772C247.561,-158.434 244.778,-137.161 242.586,-120.408"/>
<ellipse fill="none" stroke="#537f01" cx="250.232" cy="-178.842" rx="4.00001" ry="4.00001"/>
<polygon fill="#537f01" stroke="#537f01" points="242.541,-120.064 245.706,-109.565 241.892,-115.106 241.244,-110.149 241.244,-110.149 241.244,-110.149 241.892,-115.106 236.782,-110.733 242.541,-120.064 242.541,-120.064"/>
</g>
<!-- User&#45;&gt;Ticket -->
<g id="edge22" class="edge"><title>User&#45;&gt;Ticket</title>
<path fill="none" stroke="#89383a" d="M273.298,-179.315C291.109,-161.165 316.977,-134.804 335.433,-115.996"/>
<ellipse fill="none" stroke="#89383a" cx="270.401" cy="-182.267" rx="4.00002" ry="4.00002"/>
<polygon fill="#89383a" stroke="#89383a" points="335.84,-115.582 346.056,-111.596 339.342,-112.013 342.844,-108.444 342.844,-108.444 342.844,-108.444 339.342,-112.013 339.632,-105.293 335.84,-115.582 335.84,-115.582"/>
</g>
</g>
</svg>
